<?xml version="1.0" encoding="utf-8"?>
<!-- Generator: Adobe Illustrator 19.2.1, SVG Export Plug-In . SVG Version: 6.00 Build 0)  -->
<svg version="1.1" id="Capa_1" xmlns="http://www.w3.org/2000/svg" xmlns:xlink="http://www.w3.org/1999/xlink" x="0px" y="0px"
	 viewBox="0 0 448 512" style="enable-background:new 0 0 448 512;" xml:space="preserve">
<style type="text/css">
	.st0{fill:#53565A;}
</style>
<path class="st0" d="M128,244v-40c0-6.6,5.4-12,12-12h40c6.6,0,12,5.4,12,12v40c0,6.6-5.4,12-12,12h-40C133.4,256,128,250.6,128,244
	z M268,256h40c6.6,0,12-5.4,12-12v-40c0-6.6-5.4-12-12-12h-40c-6.6,0-12,5.4-12,12v40C256,250.6,261.4,256,268,256z M192,340v-40
	c0-6.6-5.4-12-12-12h-40c-6.6,0-12,5.4-12,12v40c0,6.6,5.4,12,12,12h40C186.6,352,192,346.6,192,340z M268,352h40
	c6.6,0,12-5.4,12-12v-40c0-6.6-5.4-12-12-12h-40c-6.6,0-12,5.4-12,12v40C256,346.6,261.4,352,268,352z M448,476v36H0v-36
	c0-6.6,5.4-12,12-12h19.5V85c0-11.6,10.7-21,24-21H144V24c0-13.3,10.7-24,24-24h112c13.3,0,24,10.7,24,24v40h88.5
	c13.3,0,24,9.4,24,21v379H436C442.6,464,448,469.4,448,476z M79.5,463H192v-67c0-6.6,5.4-12,12-12h40c6.6,0,12,5.4,12,12v67h112.5
	V112H304v24c0,13.3-10.7,24-24,24H168c-13.3,0-24-10.7-24-24v-24H79.5V463z M266,64h-26V38c0-3.3-2.7-6-6-6h-20c-3.3,0-6,2.7-6,6v26
	h-26c-3.3,0-6,2.7-6,6v20c0,3.3,2.7,6,6,6h26v26c0,3.3,2.7,6,6,6h20c3.3,0,6-2.7,6-6V96h26c3.3,0,6-2.7,6-6V70
	C272,66.7,269.3,64,266,64z"/>
</svg>
