<?xml version="1.0" encoding="utf-8"?>
<!-- Generator: Adobe Illustrator 19.2.1, SVG Export Plug-In . SVG Version: 6.00 Build 0)  -->
<svg version="1.1" id="Capa_1" xmlns="http://www.w3.org/2000/svg" xmlns:xlink="http://www.w3.org/1999/xlink" x="0px" y="0px"
	 viewBox="0 0 50 50" style="enable-background:new 0 0 50 50;" xml:space="preserve">
<style type="text/css">
	.st0{fill:#1E3D8E;}
</style>
<g>
	<path class="st0" d="M25,0C11.2,0,0,11.2,0,25s11.2,25,25,25s25-11.2,25-25S38.8,0,25,0z M25,46.9C12.9,46.9,3.1,37.1,3.1,25
		S12.9,3.1,25,3.1S46.9,12.9,46.9,25S37.1,46.9,25,46.9z"/>
	<path class="st0" d="M29,34.7h-1.6l0-0.8V20.1c0-0.5-0.4-0.8-0.8-0.8h-5.5c-0.5,0-0.8,0.4-0.8,0.8v1.4c0,0.5,0.4,0.8,0.8,0.8h1.5
		l0,0.8l0,10.7l0,0.8l-1.3,0c-0.5,0-0.8,0.4-0.8,0.8v1.3c0,0.5,0.4,0.8,0.8,0.8H29c0.5,0,0.8-0.4,0.8-0.8v-1.4
		C29.8,35,29.5,34.7,29,34.7z"/>
	<circle class="st0" cx="25.1" cy="13.6" r="3.2"/>
</g>
</svg>
