<?xml version="1.0" encoding="utf-8"?>
<!-- Generator: Adobe Illustrator 19.2.1, SVG Export Plug-In . SVG Version: 6.00 Build 0)  -->
<svg version="1.1" id="Capa_1" xmlns="http://www.w3.org/2000/svg" xmlns:xlink="http://www.w3.org/1999/xlink" x="0px" y="0px"
	 viewBox="0 0 448 512" style="enable-background:new 0 0 448 512;" xml:space="preserve">
<style type="text/css">
	.st0{fill:#53565A;}
</style>
<path class="st0" d="M448,48v336c-63.1,22.5-82.3,32-119.5,32c-62.8,0-86.6-32-149.3-32c-20.6,0-36.6,3.6-51.2,8.2v-64
	c14.6-4.6,30.6-8.2,51.2-8.2c62.7,0,86.5,32,149.3,32c20.4,0,35.6-3,55.5-9.3v-208c-19.9,6.3-35.1,9.3-55.5,9.3
	c-62.8,0-86.6-32-149.3-32c-50.8,0-74.9,20.6-115.2,28.7V448c0,17.7-14.3,32-32,32S0,465.7,0,448V63.1C0,46.3,14.3,32,31.1,32
	S64,46.3,64,63.1v13.6c40.3-8,64.4-28.7,115.2-28.7c62.7,0,86.5,32,149.3,32C365.7,80,384.9,70.5,448,48z"/>
</svg>
