<?xml version="1.0" encoding="utf-8"?>
<!-- Generator: Adobe Illustrator 19.2.1, SVG Export Plug-In . SVG Version: 6.00 Build 0)  -->
<svg version="1.1" id="Capa_1" xmlns="http://www.w3.org/2000/svg" xmlns:xlink="http://www.w3.org/1999/xlink" x="0px" y="0px"
	 viewBox="0 0 576 512" style="enable-background:new 0 0 576 512;" xml:space="preserve">
<style type="text/css">
	.st0{fill:#53565A;}
</style>
<path class="st0" d="M528,32H48C21.5,32,0,53.5,0,80v16h576V80C576,53.5,554.5,32,528,32z M0,432c0,26.5,21.5,48,48,48h480
	c26.5,0,48-21.5,48-48V128H0V432z M368,192h128c8.8,0,16,7.2,16,16s-7.2,16-16,16H368c-8.8,0-16-7.2-16-16S359.2,192,368,192z
	 M368,256h128c8.8,0,16,7.2,16,16s-7.2,16-16,16H368c-8.8,0-16-7.2-16-16S359.2,256,368,256z M368,320h128c8.8,0,16,7.2,16,16
	s-7.2,16-16,16H368c-8.8,0-16-7.2-16-16S359.2,320,368,320z M176,192c35.4,0,64,28.7,64,64s-28.6,64-64,64s-64-28.7-64-64
	S140.7,192,176,192z M112,352h128c26.5,0,48,21.5,48,48c0,8.8-7.2,16-16,16H80c-8.8,0-16-7.2-16-16C64,373.5,85.5,352,112,352z"/>
</svg>
