<?xml version="1.0" encoding="utf-8"?>
<!-- Generator: Adobe Illustrator 19.2.1, SVG Export Plug-In . SVG Version: 6.00 Build 0)  -->
<svg version="1.1" id="Capa_1" xmlns="http://www.w3.org/2000/svg" xmlns:xlink="http://www.w3.org/1999/xlink" x="0px" y="0px"
	 viewBox="0 0 576 512" style="enable-background:new 0 0 576 512;" xml:space="preserve">
<style type="text/css">
	.st0{fill:#53565A;}
</style>
<path class="st0" d="M222.8,413c-2.7-5.5-7.6-6.1-9.5-6.1c-2,0-6.7,0.6-9.3,5.8l-7.2,14.3c-6,12-23.4,10.6-27.6-2L153.5,378
	l-9.9,29.8c-5.5,16.5-20.9,27.6-38.3,27.6H93.7c-8.2,0-14.9-6.7-14.9-14.9s6.7-14.9,14.9-14.9h11.6c4.5,0,8.5-2.9,9.9-7.2l17-51
	c3.1-9.2,11.6-15.3,21.3-15.3s18.2,6.2,21.3,15.3l13,38.9c18.5-15.1,50.5-9.1,61.6,13.3c1.8,3.5,5.1,5.6,8.8,5.9v-76.7l119.6-118.7
	v-43.5H250.6c-12.3,0-22.4-10.1-22.4-22.4v-127H41.4C29,16.9,19,26.9,19,39.3v433.4c0,12.4,10,22.4,22.4,22.4h313.8
	c12.4,0,22.4-10,22.4-22.4v-37.4l-119.6-0.1C243.1,435,229.5,426.6,222.8,413z M377.7,130.7c0-5.9-2.3-11.6-6.5-15.8l-91.4-91.5
	c-4.2-4.2-9.9-6.5-15.9-6.5h-5.7v119.6h119.6V130.7z M288,341v64.4h64.4l151-152.1L440.1,190L288,341z M550,173.2l-29.8-29.8
	c-9.2-9.2-24.4-9.2-33.6,0l-25.5,25.5l63.4,63.4l25.5-25.5C559.3,197.5,559.3,182.5,550,173.2L550,173.2z"/>
</svg>
