<?xml version="1.0" encoding="utf-8"?>
<!-- Generator: Adobe Illustrator 19.2.1, SVG Export Plug-In . SVG Version: 6.00 Build 0)  -->
<svg version="1.1" id="Capa_1" xmlns="http://www.w3.org/2000/svg" xmlns:xlink="http://www.w3.org/1999/xlink" x="0px" y="0px"
	 viewBox="0 0 512 512" style="enable-background:new 0 0 512 512;" xml:space="preserve">
<style type="text/css">
	.st0{fill:#53565A;}
</style>
<g>
	<g>
		<path class="st0" d="M244.6,188.5h-86.8c-7.8,0-14.2-6.4-14.2-14.2s6.4-14.2,14.2-14.2h86.8c7.8,0,14.2,6.4,14.2,14.2
			S252.5,188.5,244.6,188.5z"/>
	</g>
	<g>
		<path class="st0" d="M244.6,127.8h-86.8c-7.8,0-14.2-6.4-14.2-14.2s6.4-14.2,14.2-14.2h86.8c7.8,0,14.2,6.4,14.2,14.2
			S252.5,127.8,244.6,127.8z"/>
	</g>
	<path class="st0" d="M353.8,347.9H155.9c-5.5,0-10-4.5-10-10V230.8c0-5.5,4.5-10,10-10h197.9c5.5,0,10,4.5,10,10v107.1
		C363.8,343.4,359.3,347.9,353.8,347.9z"/>
	<g>
		<path class="st0" d="M356.5,411h-94.2c-7.8,0-14.2-6.4-14.2-14.2c0-7.8,6.4-14.2,14.2-14.2h94.2c7.8,0,14.2,6.4,14.2,14.2
			C370.7,404.6,364.4,411,356.5,411z"/>
	</g>
	<path class="st0" d="M435.1,127.3L319.6,12.2c-3.6-3.5-8.4-5.5-13.4-5.5H121.9C94,6.6,71.3,29.3,71.3,57.2v397.7
		c0,27.9,22.7,50.5,50.5,50.5h268.3c27.9,0,50.5-22.7,50.5-50.5V140.7C440.7,135.7,438.7,130.8,435.1,127.3z M390.1,467.5H121.9
		c-6.8,0-12.6-5.8-12.6-12.6V57.2c0-6.8,5.8-12.6,12.6-12.6h167.1v86.6c0,0-4.4,27.2,20.5,27.2c18.9,0,69.9,0,93.4,0v296.5
		C402.8,461.7,397,467.5,390.1,467.5z"/>
</g>
</svg>
