<?xml version="1.0" encoding="utf-8"?>
<!-- Generator: Adobe Illustrator 19.2.1, SVG Export Plug-In . SVG Version: 6.00 Build 0)  -->
<svg version="1.1" id="Capa_1" xmlns="http://www.w3.org/2000/svg" xmlns:xlink="http://www.w3.org/1999/xlink" x="0px" y="0px"
	 viewBox="0 0 384 512" style="enable-background:new 0 0 384 512;" xml:space="preserve">
<style type="text/css">
	.st0{fill:#53565A;}
</style>
<path class="st0" d="M350,127l-83.6-83.7c-3.8-3.8-9.1-6-14.5-6h-5.2v109.3H356v-5.2C356,136.1,353.9,130.9,350,127z M219.3,153.5
	V37.3H48.5C37.1,37.3,28,46.5,28,57.8v396.3c0,11.4,9.1,20.5,20.5,20.5h287c11.4,0,20.5-9.1,20.5-20.5V174H239.8
	C228.6,174,219.3,164.8,219.3,153.5z M274,290.2v41c0,3.8-3.1,6.8-6.8,6.8h-47.8v47.8c0,3.8-3.1,6.8-6.8,6.8h-41
	c-3.8,0-6.8-3.1-6.8-6.8V338h-47.8c-3.8,0-6.8-3.1-6.8-6.8v-41c0-3.8,3.1-6.8,6.8-6.8h47.8v-47.8c0-3.8,3.1-6.8,6.8-6.8h41
	c3.8,0,6.8,3.1,6.8,6.8v47.8h47.8C270.9,283.3,274,286.4,274,290.2z"/>
</svg>
